<svg class="prefix__icon" viewBox="0 0 1024 1024" xmlns="http://www.w3.org/2000/svg" width="200" height="200">
    <path
        d="M139.847 604.891C62.791 604.804.34 542.359.26 465.298c-.017-25.693 20.8-46.544 46.5-46.557 25.7-.011 46.545 20.8 46.558 46.5v.057c.024 25.694 20.843 46.505 46.53 46.53 25.7 0 46.53 20.832 46.53 46.531 0 25.693-20.83 46.532-46.53 46.532zm0 279.174C62.791 883.984.34 821.539.26 744.477c-.017-25.7 20.8-46.543 46.5-46.556 25.7-.019 46.545 20.801 46.558 46.5v.056c.024 25.687 20.843 46.507 46.53 46.532 25.7 0 46.53 20.83 46.53 46.53 0 25.694-20.83 46.526-46.53 46.526zm0-558.354C62.791 325.623.34 263.179.26 186.118c-.017-25.693 20.8-46.543 46.5-46.557 25.7-.016 46.545 20.802 46.558 46.501v.062c.024 25.687 20.843 46.5 46.53 46.526 25.7-.014 46.543 20.807 46.556 46.505.019 25.693-20.8 46.543-46.5 46.557h-.056zm0 0"
        fill="#CDD4DF" />
    <path
        d="M186.379 0h651.415c51.399 0 93.062 41.662 93.062 93.062v837.533c0 51.4-41.663 93.062-93.062 93.062H186.377c-51.399 0-93.062-41.661-93.062-93.062V93.062C93.315 41.662 134.978 0 186.38 0zm0 0"
        fill="#33527D" />
    <path
        d="M558.614 930.595h232.654c25.694 0 46.532 20.833 46.532 46.532s-20.832 46.53-46.532 46.53H558.615c-25.693 0-46.525-20.83-46.525-46.53s20.832-46.532 46.525-46.532zm0 0"
        fill="#163969" />
    <path
        d="M186.379 46.53h651.415c51.399 0 93.062 41.663 93.062 93.063V884.07c0 51.393-41.663 93.056-93.062 93.056H186.377c-51.399 0-93.062-41.663-93.062-93.056V139.593c0-51.4 41.663-93.063 93.062-93.063zm0 0"
        fill="gold" />
    <path
        d="M372.497 884.065h418.771c25.694 0 46.526 20.83 46.526 46.53s-20.832 46.532-46.526 46.532h-418.77c-25.7 0-46.531-20.832-46.531-46.532 0-25.693 20.83-46.53 46.53-46.53zm0 0"
        fill="#FFBE00" />
    <path
        d="M500.297 3.316l455.071 119.358c49.58 13.554 78.782 64.728 65.228 114.31L824.3 955.114c-13.554 49.573-64.728 78.78-114.31 65.227L254.92 900.984c-49.573-13.554-78.78-64.729-65.227-114.31l196.3-718.132C399.55 18.97 450.725-10.233 500.298 3.316zm0 0"
        fill="#DFE5FF" />
    <path
        d="M558.614 884.065h232.654c25.694 0 46.532 20.83 46.532 46.53s-20.832 46.532-46.532 46.532H558.615c-25.693 0-46.525-20.832-46.525-46.532 0-25.693 20.832-46.53 46.525-46.53zm372.242-744.479c25.698 0 46.53 20.833 46.53 46.532v186.118c0 25.7-20.832 46.53-46.531 46.53-25.694 0-46.524-20.83-46.524-46.53V186.118c-.007-25.693 20.826-46.532 46.525-46.532zm0 0"
        fill="#B8C2FF" />
    <path
        d="M186.379 46.53h651.415c51.399 0 93.062 41.663 93.062 93.063v697.946c0 51.393-41.663 93.056-93.062 93.056H186.377c-51.399 0-93.062-41.661-93.062-93.056V139.593c0-51.4 41.663-93.063 93.062-93.063zm0 0"
        fill="#FFFFC5" />
    <path
        d="M186.379 0h651.415c51.399 0 93.062 41.662 93.062 93.062V791.01c0 51.393-41.663 93.056-93.062 93.056H186.377c-51.399 0-93.062-41.663-93.062-93.056V93.062C93.315 41.662 134.978 0 186.38 0zm0 0"
        fill="#33527D" />
    <path
        d="M861.058 139.586c12.847 0 23.266 10.42 23.266 23.266v558.36c0 12.847-10.42 23.265-23.266 23.265s-23.264-10.418-23.264-23.264v-558.36c0-12.847 10.418-23.267 23.264-23.267zm0 0"
        fill="#5E7599" />
    <path
        d="M139.847 418.767c25.7 0 46.53 20.832 46.53 46.531v93.061c0 25.693-20.83 46.526-46.53 46.526-25.693 0-46.525-20.833-46.525-46.526v-93.06c-.007-25.694 20.826-46.532 46.525-46.532zm0-279.18c25.7 0 46.53 20.832 46.53 46.531v93.062c0 25.693-20.83 46.526-46.53 46.526-25.693 0-46.525-20.833-46.525-46.526v-93.062c-.007-25.693 20.826-46.532 46.525-46.532zm0 558.36c25.7 0 46.53 20.83 46.53 46.53v46.532c0 25.693-20.83 46.526-46.53 46.526-25.693 0-46.525-20.833-46.525-46.526v-46.532c-.007-25.7 20.826-46.53 46.525-46.53zm0 0"
        fill="#163969" />
    <path
        d="M186.379 884.065h652.744l.068-.006h.223l.068-.007h.223l.07-.006h.228l.069-.007h.222l.07-.006h.223l.068-.006h.156l.05-.007h.093l.068-.006h.124l.1-.005h.056l.086-.006h.075l.068-.006h.075l.074-.007h.069l.08-.006h.063l.08-.007h.068l.08-.006h.069l.075-.006h.068l.08-.007h.07l.149-.012h.068l.073-.005h.075l.068-.006.081-.007h.064l.148-.013h.075l.068-.006.08-.006h.068l.074-.007.137-.012.081-.007h.069l.074-.004.069-.007.074-.006h.075l.068-.006.086-.007.075-.006.13-.007.05-.006.093-.006.064-.007.08-.004.074-.007.068-.006.08-.006h.063l.223-.02.068-.006.15-.013.068-.006.075-.005.062-.006.08-.006.07-.007.147-.013.068-.006.075-.006.068-.007.223-.017.138-.013.075-.013.148-.012.063-.007.08-.006.068-.006.064-.005.08-.013h.055l.094-.013h.017l.12-.012.036-.007c.162-.012.323-.031.485-.049l.05-.006.079-.007.063-.006.088-.013.055-.006.086-.005.057-.006.08-.013.136-.013.075-.012.075-.007.068-.006.075-.011.068-.007.075-.006.068-.013.075-.006.068-.006.073-.013.069-.006.08-.012.057-.006.08-.006.069-.013.075-.006.068-.007.075-.012.062-.007.074-.01.069-.007.074-.013.069-.006.073-.013.068-.006.075-.011.056-.007.087-.013.038-.006c.111-.013.23-.032.34-.05h.038l.086-.012.058-.013.079-.006.064-.013.08-.012.063-.005.086-.013.049-.013.087-.012.056-.007.087-.012.05-.005.093-.02.048-.006.089-.012.056-.007.085-.012.051-.012.086-.012.057-.007.086-.012.056-.013.08-.013.057-.006.087-.018.056-.006.08-.013.056-.012.094-.013.043-.005.087-.019.062-.006.08-.013.057-.013.086-.012.05-.012.093-.012.025-.007.112-.019.019-.006.645-.111.026-.007.085-.019.058-.006.085-.018.051-.006.086-.02.056-.012.087-.012.05-.012.087-.012.056-.013.087-.02.05-.005.087-.018.055-.013.08-.012.063-.013.075-.013.062-.011.08-.019.057-.013.08-.012.063-.013.08-.018.05-.006.086-.02.05-.012.125-.024.111-.019.02-.006.117-.026h.006l.13-.023.007-.007c.267-.049.54-.111.807-.168l.118-.024.024-.006.094-.02.043-.012.087-.018.05-.012.093-.02.043-.012.1-.018.037-.012.093-.02.043-.012.094-.018.048-.006.095-.025.037-.013.098-.018.045-.012.086-.02.05-.012.093-.02.044-.01.092-.02.039-.012.098-.026.038-.004.099-.026.038-.006.098-.026.039-.006.098-.024.032-.013.105-.025h.013l.124-.032.012-.004c.347-.08.695-.167 1.043-.261l.02-.007.117-.025.012-.006.118-.03.02-.007.117-.025.019-.005.105-.032.032-.006.104-.032.032-.005.105-.025.024-.007.111-.031.026-.005.106-.032.032-.006.105-.024.024-.006.106-.032.024-.007.12-.031h.006l.124-.037c.49-.137.968-.273 1.452-.415l.118-.032.02-.012.11-.032.02-.005.11-.032.026-.012.111-.032.02-.005.11-.032.02-.005.118-.038h.012l.118-.036.013-.007.124-.038h.006l.124-.036.006-.007a68.604 68.604 0 001.819-.583l.13-.045.124-.042h.013l.119-.043h.005l.125-.045h.005l.12-.043.012-.006.118-.037.39-.13.02-.013.105-.038.025-.005.111-.038h.007c.596-.211 1.192-.429 1.788-.652l.118-.042.012-.007.118-.044h.013l.117-.043.007-.007.248-.092h.006l.124-.05.13-.048a92.994 92.994 0 0023.563-13.337l.013-.007.1-.082h.007l.098-.08.007-.007.1-.08.105-.082c.7-.552 1.39-1.111 2.074-1.675l.006-.007.099-.08.006-.007.094-.075.006-.011.099-.081h.006l.094-.081.011-.013.094-.075.006-.006.092-.08.013-.006.088-.08.012-.014.086-.074.02-.013c.403-.34.8-.688 1.191-1.036l.007-.007.1-.08.005-.007.087-.08.013-.012.087-.075.018-.013.074-.068.026-.024.08-.068.018-.02.081-.074.02-.02.079-.068.02-.023.08-.069.02-.019.079-.075.019-.012.087-.08.007-.006.087-.081.017-.013.082-.075.019-.019.08-.073.012-.012.664-.61.013-.018.087-.08.013-.006.086-.088.013-.006.093-.094.08-.074.019-.024.081-.069.192-.192.026-.013.068-.074.032-.024.073-.069.02-.025.074-.068.024-.026.074-.068.218-.216.075-.069.111-.11.081-.077.105-.105c.218-.212.436-.43.652-.645l.1-.1.075-.08.025-.02.092-.093.069-.075.031-.024.093-.093.063-.069.037-.031.062-.067.032-.032.054-.062.23-.229.056-.063.1-.099.032-.037.154-.155.032-.038.06-.062.025-.032.1-.099.063-.068.023-.018.075-.074.013-.02c.08-.079.156-.166.235-.247l.026-.026.049-.055.044-.05.043-.044.05-.056.044-.05.048-.048.044-.05.05-.05.044-.05.05-.05.042-.048.051-.051.043-.05.05-.049.044-.05.047-.056.045-.043.043-.056.05-.05.087-.1.1-.098.043-.057.044-.043.048-.056.044-.043.056-.063.032-.037.062-.068.032-.037.062-.068.031-.032.06-.074.026-.024.08-.088.006-.019.075-.08.025-.018c.124-.143.242-.274.36-.417l.018-.019.075-.086.02-.019.074-.08.017-.025.069-.08.025-.026.064-.075.036-.036.056-.069.032-.032.06-.074.032-.032.062-.073.024-.032.063-.067.032-.038.054-.068.032-.032.062-.073.024-.032.068-.08.02-.025.063-.075.03-.031.062-.073.024-.032.068-.075.02-.032.074-.08.013-.018.074-.093.018-.019.081-.093.006-.007c.205-.254.41-.502.62-.756v-.007l.088-.1.087-.111h.006l.08-.105.014-.013.073-.094.02-.019.068-.085.012-.02.075-.093.013-.018.075-.087.01-.02.075-.085.02-.026.068-.087.013-.011.074-.1.011-.013.075-.098.006-.013.08-.094.008-.013a92.54 92.54 0 0019.621-50.958c.838-12.777-8.81-23.83-21.589-24.724a21.352 21.352 0 00-1.647-.062c-12.207.013-22.333 9.462-23.185 21.638-1.805 24.315-22.035 43.135-46.412 43.185H186.379c-25.687-.032-46.5-20.844-46.53-46.53v-19.814c.012-12.853-10.396-23.277-23.24-23.29-12.847-.013-23.28 10.388-23.292 23.239v19.864c0 51.342 41.663 93.007 93.062 93.007zm0 0"
        fill="#163969" />
    <path
        d="M325.965 162.852c0 38.553-31.245 69.796-69.791 69.796-38.546 0-69.797-31.243-69.797-69.796 0-38.546 31.25-69.79 69.797-69.79 38.546 0 69.791 31.244 69.791 69.79zm0 279.18c0 38.547-31.245 69.797-69.791 69.797-38.546 0-69.797-31.25-69.797-69.797 0-38.546 31.25-69.79 69.797-69.79 38.546 0 69.791 31.244 69.791 69.79zm0 279.18c0 38.547-31.245 69.797-69.791 69.797-38.546 0-69.797-31.25-69.797-69.796 0-38.546 31.25-69.796 69.797-69.796 38.546 0 69.791 31.25 69.791 69.796zm0 0"
        fill="#002755" />
    <path
        d="M605.144 697.947h139.592c25.702 0 46.532 20.83 46.532 46.53 0 25.693-20.83 46.532-46.53 46.532H605.145c-25.694 0-46.525-20.839-46.525-46.532-.006-25.7 20.824-46.53 46.525-46.53zm0 0"
        fill="#DFE5FF" />
    <path
        d="M232.91 232.648c-25.694.007-46.526-20.811-46.533-46.506v-.024c.02-25.693-20.8-46.543-46.5-46.557-25.7-.016-46.541 20.802-46.562 46.501v.062c-.011 25.694-20.854 46.512-46.556 46.5C21.085 232.606.272 211.793.261 186.119.26 109.026 62.756 46.53 139.849 46.53c77.092 0 139.586 62.496 139.586 139.588.006 25.693-20.813 46.526-46.507 46.53h-.017zm0 0"
        fill="#CDD4DF" />
    <path
        d="M139.847 46.53h-1.136l-.193.007h-.497l-.191.006h-.25l-.198.006h-.205l-.043.007h-.193l-.044.006h-.205l-.199.006h-.043l-.192.007h-.026l-.18.006h-.048l-.193.007h-.032l-.18.004h-.037l-.191.007h-.038l-.186.006h-.02l-.204.006-.037.007-.397.012h-.051l-.199.007h-.017l-.181.013h-.043l-.2.006h-.036l-.168.011h-.037l-.192.006-.05.007-.174.006h-.032l-.19.013h-.052l-.186.013h-.031l-.174.006-.042.006-.193.005-.044.006-.167.007-.038.006-.2.006-.036.007-.18.006-.025.007-.192.006-.043.006-.187.011h-.018l-.192.013h-.051l-.19.013-.015.006-.186.013h-.043l-.192.013-.039.004-.167.007-.042.006-.194.013-.043.006-.18.013h-.019l-.192.013-.05.006-.192.011h-.032l-.167.013-.05.006-.186.013-.043.006-.162.013h-.043l-.186.017h-.05l-.168.02h-.032l-.19.019-.052.006-.18.011h-.025l-.18.02-.048.005-.193.02h-.032l-.166.019h-.051l-.186.017-.043.006-.162.02h-.043l-.186.019-.05.004-.168.02h-.032l-.18.019-.061.006-.18.019-.043.005-.156.012-.055.007-.182.025h-.047l-.156.02-.045.004-.18.02-.063.006-.154.019h-.037l-.18.023-.056.007-.186.019h-.013l-.18.025-.062.007-.174.017-.198.026-.055.006-.181.019-.056.005-.199.025-.18.02-.055.006-.162.023h-.032l-.18.026-.055.006-.18.024-.198.026-.056.006-.181.025-.043.007-.156.017-.048.007-.18.025-.057.006-.198.024-.169.026-.068.012-.167.024-.044.007-.148.019-.075.012-.169.02-.062.01-.123.02-.075.012-.167.02-.064.01-.128.02-.064.006-.167.025-.075.011-.216.032-.13.026-.081.01-.137.02-.1.019-.111.013-.08.012-.156.024-.08.02-.112.012-.075.011-.162.026-.074.012-.124.026-.075.005-.154.025-.069.013-.15.024-.08.012-.124.02-.08.018-.162.024-.068.013-.111.019-.244.037-.074.012-.112.026-.106.019-.216.03-.111.025-.107.018-.118.019-.08.013-.131.025-.106.018-.186.031-.155.032-.087.011-.1.02-.08.018-.155.024-.088.02-.111.018-.105.018-.126.025-.08.02-.118.017-.118.025-.186.037-.143.025-.092.02-.1.019-.088.017-.148.025-.087.02-.094.017-.13.025-.105.026-.094.017-.086.02-.155.031-.08.011-.1.026-.087.019-.137.024-.075.012-.098.026-.143.024-.094.025-.092.02-.112.023-.119.025-.098.02-.094.017-.13.032-.094.019-.099.017-.087.02-.148.038-.088.01-.1.026-.098.02-.137.031-.08.016-.095.02-.143.037-.092.02-.08.018-.155.032-.088.016-.175.044-.241.056-.092.02-.094.025-.156.031-.068.016-.143.032-.093.026-.105.025-.068.017-.168.039-.175.043-.08.019-.15.031-.079.018-.106.025-.068.018-.167.044-.069.013-.106.032-.092.024-.137.031-.087.018-.144.036-.087.026-.099.025-.068.013-.175.043-.066.02-.1.023-.069.019-.175.043-.067.019-.106.025-.037.012-.205.05-.055.013-.205.056-.037.01-.1.026-.08.02-.131.036-.2.05-.079.025-.155.038-.075.024-.175.044-.159.043-.07.02-.105.03-.044.012-.191.05-.064.018-.19.05-.045.012-.111.032-.064.018-.18.049-.055.019-.105.032-.063.013-.18.047-.056.02-.111.031-.013.006-.237.062-.036.013-.366.105-.031.013a10.85 10.85 0 00-.372.105l-.02.006-.23.064-.032.01-.365.107-.032.011-.366.112-.032.008-.37.11-.013.007-.25.075h-.004l-.132.043h-.005l-1.038.323-.017.006-.64.205-.379.124-.025.006-.372.118-.41.137-.23.074-.025.013c-.124.037-.254.087-.378.124h-.006l-.385.13c-.35.118-.69.242-1.038.361a139.964 139.964 0 00-57.907 38.578l-.004.005c-.237.26-.466.521-.703.782l-.02.025-.247.28-.018.018c-.08.1-.168.192-.25.286l-.017.025-.149.167-.019.025-.08.093-.014.006-.16.186-.013.013c-.075.093-.16.192-.242.286l-.025.032-.235.271-.039.039c-.042.049-.085.104-.13.154l-.024.032-.111.13-.126.143-.031.036-.112.13c-.036.045-.074.095-.117.138l-.037.05-.068.08-.056.068-.1.111-.05.064-.087.105-.124.15-.055.068-.08.092-.07.081-.055.075-.064.068-.086.111-.049.064-.068.073-.069.094-.074.087-.112.135-.1.112-.047.07-.064.074-.068.086-.124.156-.08.094-.057.068-.08.105-.044.05-.1.123-.043.051-.075.099-.043.049-.1.124-.036.05-.088.106-.032.038-.105.13-.036.048-.094.119-.124.156-.043.047c-.032.051-.068.09-.106.139l-.112.15-.036.036-.107.143-.019.025-.105.13-.019.024c-.036.05-.08.1-.117.15l-.02.025-.11.143-.007.005c-.043.056-.075.1-.118.15l-.019.031c-.08.105-.154.205-.235.304l-.019.025-.118.148-.006.013-.118.156-.006.006-.118.16-.012.013-.244.318-.01.011c-.075.107-.163.218-.244.323l-.006.013-.242.318-.013.017a144.027 144.027 0 00-5.657 8.14c-6.922 10.823-3.767 25.215 7.055 32.139 10.804 6.916 25.165 3.781 32.108-7.004a92.876 92.876 0 0178.327-42.874c12.847.013 23.271-10.396 23.29-23.24.013-12.847-10.394-23.28-23.24-23.29-.026.004-.037.004-.056.004zm0 0"
        fill="#EFF2FF" />
    <path
        d="M232.91 511.829c-25.694.006-46.526-20.814-46.533-46.507v-.024c.02-25.693-20.8-46.544-46.5-46.557-25.7-.011-46.541 20.8-46.562 46.5v.057c-.011 25.7-20.854 46.518-46.556 46.505C21.085 511.786.272 490.974.261 465.298c0-77.092 62.495-139.587 139.588-139.587 77.092 0 139.586 62.495 139.586 139.587.006 25.694-20.813 46.526-46.507 46.53h-.017zm0 279.18c-25.694.006-46.526-20.813-46.533-46.506v-.026c0-25.7-20.83-46.53-46.53-46.53s-46.532 20.83-46.532 46.53c-.011 25.7-20.854 46.52-46.556 46.5-25.674-.01-46.487-20.824-46.498-46.5 0-77.092 62.495-139.586 139.588-139.586 77.092 0 139.586 62.494 139.586 139.586.006 25.693-20.813 46.526-46.507 46.532h-.017zm0 0"
        fill="#CDD4DF" />
    <path
        d="M139.847 372.243c-51.369.055-93 41.687-93.056 93.055v23.265c-.013 12.846 10.394 23.27 23.24 23.285 12.854.013 23.278-10.396 23.286-23.247v-23.303c0-25.693 20.837-46.531 46.53-46.531h.372l.111.006h.393l.111.006h.26l.112.007h.13l.107.006h.137l.105.006h.025l.099.007h.025l.099.004h.012l.107.007h.024l.106.006h.13l.112.006.019.007.105.006h.019l.098.007h.013l.111.006h.02l.11.006h.007l.1.007.024.006.1.005h.026l.104.006h.007l.105.013h.019l.105.006.025.007.1.006h.011l.1.006.032.007.099.006h.019l.099.005.012.006.105.006h.02l.104.013h.02l.1.013h.017l.106.013h.018l.224.023h.013l.11.013h.02l.105.013h.006l.107.013h.017l.107.012h.017l.218.024.02.007.104.012.019.007.1.012h.011l.107.011h.017l.107.02h.019l.098.012h.013l.105.02h.02l.104.012.006.005.107.013h.013l.105.012.025.007.105.019h.006l.099.012h.019l.106.018h.018l.218.038h.019l.105.018h.012l.099.019h.013l.106.019h.018l.1.019.025.004.092.013h.013l.105.02.019.006.223.036h.007l.112.02.012.006.112.019.105.017.012.007.107.019h.017l.218.043.013.006.111.019h.006l.223.043.008.006.111.02.007.006.11.019.007.005.105.019.02.006.106.025h.006l.099.018.012.006.105.02.02.006.104.025h.007l.106.024h.006l.105.025.02.007.21.049h.018l.107.025.01.007.212.047.02.008.098.024h.019l.1.026h.007l.104.031h.02l.098.024.006.007.1.025h.018l.1.024.02.006.104.032h.007l.098.024h.013l.106.032h.011l.212.062h.013l.104.032h.013l.212.062h.012l.105.031h.007l.217.06.02.007.098.032h.006l.105.032h.007l.1.03.024.006.1.032h.006l.099.03.012.005.1.025.018.007.207.063.01.005.107.037h.005l.218.068h.006l.105.038h.013l.211.069.006.006.105.032.007.004.1.032h.013l.098.037.013.006.098.032h.013l.1.037h.007l.105.036.012.006.205.069.013.006.105.032.006.006.212.075h.006l.105.037.006.006.212.075h.006l.105.043h.006l.105.038.107.043h.006l.105.043.211.08h.013c.068.026.137.056.205.08l.011.008.1.037h.007c.075.031.143.055.211.087h.007l.316.13h.006l.317.13h.006c.18.075.36.15.534.23l.105.044h.006l.205.092h.007l.105.051.211.092h.006c.1.05.205.094.31.143h.007l.311.15.21.092v.006c.143.064.28.13.417.199h.006l.205.1h.006c.099.056.205.105.304.154.106.051.211.107.31.156h.006l.207.107.098.047.007.008.198.099v.006l.099.05h.006c.064.038.13.074.199.106l.006.006.1.056.2.105h.004l.299.168h.006l.199.112h.006l.099.055v.007l.299.168h.006c.062.037.13.073.19.118h.009l.098.055.193.112.006.006.094.056h.006l.099.063.093.054.007.007c.098.057.198.119.29.174h.007l.094.062.098.056h.007l.087.062h.013l.18.118.012.006.086.056.006.006.094.056h.006l.088.063.011.005.087.057.007.005.186.12.012.006.18.117.006.007.094.055.007.007.186.124h.006l.086.062.012.006.182.124h.004l.094.068c.064.043.124.08.186.124l.007.007.093.062v.006l.093.062.087.062.02.006.174.124.005.007.087.062.006.006c.062.043.124.08.18.124l.013.006.08.062.012.013.175.124.011.006.081.062.013.007.08.062.007.006.086.062.013.006.08.062.014.007.087.062.08.062.018.012.08.062.014.013.069.048.017.02.081.056.02.011.074.064.011.005.075.057.012.011.075.064.1.073.011.006.069.056.019.019.08.055.014.013.073.056.013.012.074.064.02.011.074.062.017.013.069.055.013.013.08.062.02.013.074.062.018.013.063.055.018.013.075.062.019.011.074.064.012.01.074.064.013.005.075.068.019.013.074.064v.005l.08.063.019.011.075.062.012.013.075.068h.007l.073.069.019.01.074.07.02.012.068.055.006.013.073.064.02.017.074.064.013.011.062.056.025.019.069.062.017.019.075.062.019.01.055.058.026.011.068.064.024.024.068.063.013.005.08.08.076.063.017.013.075.074.069.062.025.018.068.064.02.017.061.056.011.012.069.064.025.024.069.062.019.012.055.062.02.013.068.062.017.024.069.064.025.017.05.05.025.018.086.088.068.062.237.235.024.02.236.234.069.064.019.024.068.068.018.013.162.16.062.069.092.094.057.062.032.025.054.056.025.031.075.074.056.063.186.185.05.063.037.03.032.037.086.087.032.038.085.086.039.045.036.036.045.05.031.038.035.036.051.056.037.032.038.049.043.043.032.038.047.05.032.038.038.036.043.05.043.044.064.073.047.057.032.037.038.038.048.056.038.042.02.026.063.068.024.024.036.045.032.036.05.056.025.032.055.062.032.036.037.038.032.037.047.063.026.024.068.08.013.012.036.051.026.024.055.069.026.031.075.08.006.013.043.05.013.018.074.08.011.02c.038.05.081.099.12.143l.023.024.069.087.006.007.13.155.007.012.075.093.012.013.037.05.006.012.075.092.013.013c.068.087.143.175.211.26l.006.007c.037.056.08.107.124.162.032.037.056.075.086.105v.006a46.317 46.317 0 017.862 15.331c3.632 12.324 16.57 19.372 28.89 15.74 12.325-3.632 19.373-16.572 15.74-28.898-11.835-39.458-48.076-66.553-89.28-66.715zm0 0"
        fill="#7D8FAC" />
    <path
        d="M93.315 488.563c0 12.846-10.411 23.266-23.264 23.266-12.847 0-23.26-10.42-23.26-23.266s10.412-23.265 23.26-23.265c12.853 0 23.264 10.418 23.264 23.265zm0 0"
        fill="#435E88" />
    <path
        d="M139.847 93.062c-51.369.056-93 41.687-93.056 93.056v23.266c-.013 12.847 10.394 23.277 23.24 23.283 12.854.013 23.278-10.395 23.286-23.24v-23.309c0-25.693 20.837-46.525 46.53-46.532h.372l.111.007h.393l.111.006h.26l.106.013h.13l.111.006h.139l.098.006h.026l.105.007h.025l.099.006h.006l.111.006h.02l.11.005h.132l.105.007.026.006.105.006h.012l.105.007h.013l.105.006h.025l.105.006h.013l.1.007.018.006.106.006h.02l.11.012h.007l.105.006h.019l.105.006.019.007.1.006h.011l.107.006.023.007.1.006h.02l.105.013h.006l.111.006.02.005.104.006h.02l.1.013h.01l.107.013h.019l.223.025h.019l.105.011h.019l.222.026h.013l.111.012h.02l.21.032h.026l.099.011.025.007.094.012h.011l.111.013.015.006.11.012h.014l.098.012h.02l.098.02h.019l.111.012.006.006.107.012h.013l.105.019h.019l.104.019h.007l.105.012h.012l.112.018h.012l.218.038h.02l.104.02h.02l.098.017h.006l.107.019h.024l.1.019.019.006.098.011.013.007.105.012.019.007.105.019h.006l.107.019h.012l.105.017.013.007.111.019.112.025h.012l.107.018.017.006.218.038.013.005.105.019h.012l.218.05h.013l.111.025h.007l.104.019.007.006.106.018.124.031h.007l.105.02.012.006.105.024h.013l.105.025h.006l.107.024.012.006.105.02.013.006.216.049h.013l.106.025.013.007.105.024h.006l.099.025.019.006.105.026h.013l.106.024v.006l.105.026h.02l.104.031h.006l.1.024h.012l.106.024.013.006.105.032h.006l.099.026h.019l.1.031.017.005.212.056h.006l.111.032h.007l.106.031h.007l.098.03h.02l.104.032.007.005.21.056.02.006.105.032h.006l.1.032.012.004.1.026.019.006.098.032h.007l.098.03.013.007.1.031h.018l.211.067h.013l.1.032.011.006.211.069h.013l.1.036h.018l.206.069.011.006.105.032h.007l.1.036h.006l.099.037h.019l.098.038h.007l.1.032.013.005.098.031.02.007.204.073h.013l.099.038.012.006.205.075h.013l.099.037.012.006.205.075h.013l.099.036.006.007.211.074.013.007.099.036h.006l.211.081.007.007c.074.025.143.049.211.08l.007.007.104.037c.075.031.144.055.218.08v.007l.105.037.006.006.212.081.006.006.317.13h.006c.175.075.353.15.534.223l.099.045.012.006.205.094.105.043.007.006.206.086.005.006c.107.051.211.094.318.143.105.05.21.1.316.143l.204.1c.143.069.28.136.423.2l.006.004.199.1h.006c.098.05.205.099.31.156.1.048.207.099.305.154h.006l.204.107.1.047h.006l.205.107v.006l.099.05.199.106.006.006.1.05h.007l.198.11h.005l.299.17h.006l.19.11h.009l.098.056.007.007a28134.275 28134.275 0 01.49.28l.007.006.298.167.006.006.094.056h.006l.092.057.1.062h.007l.29.18.1.061.093.056h.006l.094.056.006.006.186.118.007.006.092.056h.006l.094.063.094.056.005.006.093.062h.007l.186.124.006.007.186.117.006.007.094.055v.007l.191.124.095.063.005.005.28.186v.006c.063.038.13.08.186.124l.006.007.094.063h.006l.086.067h.007l.08.056.02.012.086.064h.006l.087.06.007.007.087.063.006.005c.062.043.118.08.174.124l.012.006.086.064.013.005.168.124.013.012.086.064.013.005.08.063h.007l.08.06.012.013.088.062.013.007.079.062.087.063.013.011.08.062.014.013.092.062.075.062.019.013.08.062.007.006.073.056.02.013.074.062.026.017.068.057.011.005.075.057.019.018.075.055.019.013.068.056.018.012.074.064.02.011.074.064.017.01.069.057.013.012.074.064.02.01.074.063.018.013.063.055.018.013.074.062.02.013.074.062.013.01.073.058.013.011.074.069.02.012.079.064v.005l.075.063.019.011.074.064.013.011.16.137.013.012.075.062.02.018.067.057.013.011.073.064.013.017.075.064.019.011.062.056.019.019.075.062.017.012.068.069.02.012.061.056.02.013.068.062.024.017.068.064.013.011.063.056.024.025.069.064.017.01.075.07.006.006.069.062.019.019.068.062.025.017.056.056.017.012.069.064.019.024.068.063.02.012.061.055.02.02.068.061.017.02.069.061.019.024.055.05.02.018.068.064.024.018.063.062.018.025.055.048.107.106.062.056.019.025.062.056.017.025.069.062.08.08.013.008.062.068.163.16.023.02.064.062.016.025.138.135.02.026.333.335.038.043.05.05.031.037.086.088.032.036.124.124.032.038.047.056.07.068.037.043.08.081.037.043.051.051.032.037.043.043.043.05.032.032.047.054.032.032.075.088.044.047.037.038.032.039.047.055.032.032.032.037.05.055.036.043.025.026.064.074.016.024.038.045.038.036.05.056.025.032.055.062.032.031.03.043.032.037.056.063.017.024.069.08.012.014.043.048.02.02.063.074.024.025.068.08.013.02.036.043.02.02c.017.03.042.055.068.085l.011.013c.044.049.081.1.126.15l.017.023.068.081.013.013.124.155.013.013.075.092.006.013.043.05.006.012.075.094.006.006c.075.086.143.18.212.266l.006.006c.043.057.086.107.13.162.024.037.056.075.08.105l.006.006a46.522 46.522 0 017.862 15.324c3.632 12.326 16.564 19.373 28.89 15.74 12.325-3.631 19.373-16.565 15.74-28.89-11.828-39.466-48.076-66.562-89.28-66.723zm0 558.353c-51.369.063-93 41.693-93.056 93.062v23.266c-.013 12.847 10.394 23.27 23.24 23.284 12.854.012 23.278-10.394 23.286-23.247v-23.303c0-25.7 20.837-46.53 46.53-46.53h.509l.106.006h.391l.099.007h.143l.111.006h.13l.107.005h.137l.105.006h.025l.099.006h.025l.099.007h.012l.107.006h.024l.106.006h.13l.112.007.019.006.105.007h.019l.098.006h.013l.111.006h.02l.11.005h.007l.1.006.024.007.1.006h.026l.104.006h.007l.105.013h.019l.105.007h.025l.1.012h.011l.1.005h.032l.099.013h.019l.099.006.012.006.105.007h.02l.104.013h.02l.1.012h.017l.106.011h.018l.224.026h.013l.11.013h.02l.105.012h.006l.107.013h.017l.107.011h.017l.218.025.02.007.104.013h.019l.1.01.011.007.107.013h.017l.107.019h.019l.098.013h.013l.105.012.02.005.104.013.006.006.107.013h.013l.105.013.025.006.105.013h.006l.099.017h.019l.106.02h.018l.218.031.019.005.105.019h.012l.099.019h.013l.106.019h.018l.1.017.025.007.092.013h.013l.105.019.019.006.223.037h.007l.112.019.012.006.112.017.105.02.012.006.107.019h.017l.218.043.013.006.111.02h.006l.223.042.008.007.111.019.007.006.11.017h.007l.105.026.02.006.106.02.006.004.099.02.012.006.105.019.02.006.104.024h.007l.106.025h.006l.105.026.02.004.21.051h.018l.107.024h.01l.107.032.105.025h.02l.098.032h.019l.1.024h.007l.104.024.02.006.098.026.006.006.1.024h.018l.1.025.02.007.104.025.007.005.098.025h.013l.106.032h.011l.212.062h.013l.104.032h.013l.107.03.105.024.012.006.105.032h.007l.217.062.02.006.098.032h.006l.105.03h.007l.1.032.024.005.1.032h.006l.099.032h.012l.1.03.018.006.207.062.01.006.107.032h.005l.218.067.006.006.105.032.013.006.211.069h.006l.105.036h.007l.1.032.013.005.098.032.013.006.098.032.013.005.1.031.007.007.105.032.012.004.205.069.013.006.105.037h.006l.212.074.006.007.105.038h.006l.212.08h.006l.105.037h.006l.105.043.107.039.006.006.105.036.211.08.013.008c.069.024.137.05.205.08h.011l.1.044h.007c.075.024.143.056.211.08l.007.007.104.037.212.087.006.007c.105.036.21.08.317.13h.006c.18.073.36.148.534.223l.105.044.006.005.205.087.007.007.105.042.211.094h.006a5 5 0 00.31.143h.007l.311.15.21.098c.143.064.28.13.417.199h.006l.205.1h.006c.099.048.205.105.304.154.106.05.211.1.31.156h.006l.207.105.098.05h.007l.198.106v.006l.099.05h.006c.064.038.13.074.199.106l.006.005.1.05.2.112h.004l.299.167h.006l.199.111h.006l.099.057v.007l.299.166h.006c.062.039.13.075.19.112l.009.008.098.055.193.112.006.006.094.056h.006l.099.055.093.064h.007c.098.06.198.117.29.18h.007l.094.061.098.056h.007l.087.062h.013l.18.118.012.006.086.056h.006l.094.063h.006l.088.054.011.007.087.063h.007l.186.123h.013l.18.125h.005l.094.062.007.007.186.123h.006l.086.062.013.007.18.124h.005l.094.062v.006c.064.037.124.08.186.124l.007.007.186.124.087.061.02.013.174.124.005.007.087.062h.006c.062.042.124.087.18.13l.013.006.08.062.012.007.175.124.011.012.081.056.013.013.08.062h.007l.086.062.013.012.08.056.014.013.087.062.08.062.018.01.08.064.014.012.069.05.017.018.081.057.02.011.074.064.011.005.075.055.012.013.075.063.1.074.011.006.069.056.019.019.08.055.014.013.073.056.013.012.074.056.02.02.074.055.017.019.069.055.013.007.08.062.02.019.074.062.018.011.063.05.018.018.075.058.019.017.074.064.012.01.074.056.013.013.075.064.019.016.074.063.08.068.019.013.075.062.012.013.075.062.007.006.073.069.019.01.074.064.02.018.068.055.006.007.073.068.02.013.074.068.013.013.062.056.025.012.069.069.017.01.075.064.019.018.055.05.026.018.068.064.024.017.068.064.013.01.064.057.016.019.076.068.017.013.069.068h.006l.069.067.025.019.068.063.02.018.061.056.011.012.069.062.025.026.069.062.019.01.074.076.069.063.017.018.069.063.074.073.026.02.068.061.018.02.068.061.019.024.137.137.025.02.08.079.063.057.018.024.063.063.024.018.056.063.012.005.069.068.019.026.068.062.242.241.019.026.073.075.057.062.032.023.054.058.025.031.163.16.036.044.118.118.05.055.037.038.032.037.048.044.038.043.032.037.124.125.036.043.045.05.031.031.035.043.088.088.038.043.043.049.032.032.047.055.032.032.038.043.043.043.043.05.064.074.047.056.07.068.048.057.038.043.02.026.063.073.024.025.036.043.032.038.05.056.025.032.055.062.032.031.037.042.032.038.047.062.026.025.068.08.013.012.036.05.026.019.055.074.026.026.075.08.006.018.043.043.013.02c.023.031.049.055.074.087l.011.013.12.147.023.026.069.087.006.007.13.154.007.013.075.093.012.013.037.048.006.014.075.092.013.007.211.267.006.006c.037.056.08.105.124.162.032.037.056.073.086.105v.006a46.317 46.317 0 017.862 15.33c3.632 12.325 16.57 19.373 28.89 15.74 12.325-3.631 19.373-16.572 15.74-28.897-11.828-39.458-48.076-66.549-89.28-66.717zm0 0"
        fill="#7D8FAC" />
    <path
        d="M93.315 767.743c0 12.847-10.411 23.266-23.264 23.266-12.847 0-23.26-10.42-23.26-23.266s10.412-23.266 23.26-23.266c12.853 0 23.264 10.42 23.264 23.266zM70.051 186.118c12.853 0 23.264 10.42 23.264 23.266s-10.411 23.264-23.264 23.264c-12.847 0-23.26-10.417-23.26-23.264s10.412-23.266 23.26-23.266zm0 0"
        fill="#435E88" />
    <path
        d="M139.847 325.71h-1.136l-.193.007h-.497l-.191.006h-.25l-.198.007h-.248l-.193.006h-.044l-.175.006h-.03l-.199.007h-.043l-.192.006h-.026l-.18.005h-.048l-.193.006h-.032l-.18.007h-.037l-.191.006h-.038l-.186.006h-.02l-.204.007h-.037l-.199.006-.198.013h-.051l-.199.006h-.017l-.181.011h-.043l-.2.007h-.036l-.168.012h-.037l-.192.007h-.05l-.174.012h-.032l-.19.007-.052.006-.186.011h-.031l-.174.007-.042.006-.193.006-.044.007-.167.006h-.038l-.2.013-.036.006-.18.006-.025.007-.192.005-.043.006-.187.013h-.018l-.192.012h-.051l-.19.013h-.015l-.186.018h-.043l-.192.012-.039.007-.167.006-.042.006-.194.013h-.043l-.18.013-.019.006-.192.011-.05.007-.192.012h-.032l-.167.013-.05.006-.186.013h-.043l-.162.018h-.043l-.186.019h-.05l-.168.019h-.032l-.19.017-.052.007-.18.012h-.025l-.18.02-.048.006-.193.013-.032.006-.166.017h-.051l-.186.02-.043.006-.162.012-.043.007-.186.017-.05.007-.168.019h-.032l-.18.019-.061.006-.18.018-.043.006-.156.013-.055.006-.182.02-.047.006-.156.017-.045.006-.18.02-.063.006-.154.013-.037.006-.18.024-.056.006-.186.02h-.013l-.18.023-.062.006-.174.02-.048.006-.15.013-.055.006-.181.024-.056.006-.199.026-.18.019-.055.004-.162.026h-.032l-.18.025-.055.007-.18.023-.198.026-.056.006-.181.024-.043.006-.156.02-.048.006-.18.025-.057.005-.198.025-.169.026-.068.011-.167.025-.044.007-.148.019-.075.006-.169.024-.062.013-.123.019-.075.006-.167.024-.064.013-.128.019-.064.006-.167.024-.075.013-.216.032-.13.023-.081.013-.137.02-.1.012-.111.017-.08.013-.156.026-.08.012-.187.032-.162.024-.074.013-.124.017-.075.013-.154.025-.069.013-.15.024-.08.013-.124.019-.08.012-.162.032-.068.011-.111.02-.244.036-.186.032-.106.017-.13.026-.086.012-.111.018-.107.025-.118.02-.08.012-.131.024-.106.019-.186.032-.155.03-.087.013-.1.019-.08.01-.155.033-.088.019-.111.017-.105.02-.126.025-.08.01-.236.052-.092.012-.094.018-.143.032-.092.019-.1.017-.088.013-.148.032-.087.017-.094.02-.13.025-.105.017-.094.026-.086.012-.155.032-.08.018-.1.019-.087.019-.15.03-.08.02-.1.017-.136.031-.099.02-.087.017-.237.05-.186.037-.13.032-.099.018-.094.025-.087.02-.154.03-.081.018-.099.026-.1.017-.137.032-.08.02-.095.017-.147.031-.094.024-.08.013-.155.038-.08.018-.1.025-.081.02-.156.031-.08.017-.095.026-.098.017-.148.039-.068.019-.144.03-.1.025-.105.024-.063.013-.167.043-.075.012-.098.026-.088.019-.148.036-.08.02-.175.042-.167.043-.064.013-.111.026-.092.025-.137.037-.08.019-.143.036-.095.02-.099.023-.068.02-.175.044-.06.017-.107.026-.068.019-.173.043-.062.019-.105.023-.038.007-.205.055-.062.013-.205.056-.037.006-.1.032-.073.017-.137.039-.1.025-.092.024-.081.019-.156.043-.075.019-.098.032-.081.017-.163.045-.068.017-.105.026-.036.012-.2.056-.063.02-.19.047-.045.014-.105.032-.063.011-.18.056-.062.012-.105.032-.064.018-.18.049-.055.019-.111.032h-.006l-.236.068-.044.011a7.679 7.679 0 00-.36.107l-.038.006-.365.111h-.02l-.228.069-.032.012-.365.105-.039.013-.365.105-.026.013-.378.11h-.013l-.248.082h-.006l-.13.038-.007.007c-.341.104-.69.21-1.036.322l-.02.007c-.21.068-.422.13-.64.198v.007l-.378.117-.024.007-.365.124-.027.006-.372.124-.013.006-.235.075-.02.006-.384.13h-.006l-.379.131h-.006l-1.032.353a140.019 140.019 0 00-57.911 38.584l-.006.006a88.807 88.807 0 00-.703.783l-.018.019-.248.286-.019.017c-.08.094-.162.193-.248.286l-.019.018c-.049.063-.1.111-.149.168l-.02.026-.079.092-.012.013-.162.186-.007.012-.248.286-.025.032-.235.272-.032.037-.135.155-.026.032-.074.08-.032.044-.13.15-.032.036-.112.13c-.036.043-.073.094-.11.137l-.044.05-.068.079-.056.07-.094.111-.055.056-.088.111-.062.07-.062.075-.055.066-.08.1-.063.08-.124.138-.088.112-.047.063-.07.08-.069.087-.074.086-.112.137-.092.117-.057.064-.062.073-.068.094-.075.087-.048.062-.083.099-.047.063-.09.105-.036.048-.098.125-.045.056-.08.094-.037.05-.105.13-.039.049-.079.1-.032.036-.106.137-.037.05-.1.11-.005.032-.1.124-.043.051c-.032.048-.068.086-.106.137l-.112.148-.036.038-.107.143-.023.024-.1.13-.02.026c-.043.049-.08.098-.117.15l-.02.023-.11.143-.007.006c-.043.056-.075.1-.118.15l-.019.032-.235.302-.019.025-.118.15-.006.012-.118.156-.006.005-.118.155-.012.02-.244.317-.01.012c-.075.104-.163.217-.244.322l-.006.013-.242.316-.013.02c-.124.166-.248.333-.372.495a144.027 144.027 0 00-5.283 7.644c-6.924 10.828-3.758 25.215 7.065 32.14 10.798 6.902 25.153 3.774 32.095-7.006a92.852 92.852 0 0178.322-42.873c12.853.011 23.277-10.395 23.29-23.24.013-12.853-10.388-23.279-23.24-23.292-.02.007-.032.007-.05.007zm0 279.181h-1.378l-.175.006h-.483l-.188.007h-.273l-.173.006h-.043l-.193.005h-.25l-.198.006h-.043l-.192.007h-.026l-.18.006h-.048l-.193.006h-.032l-.18.007h-.037l-.191.006-.038.006-.186.007h-.02l-.204.006h-.037l-.397.011h-.051l-.199.013h-.017l-.181.006h-.043l-.2.007-.036.006-.168.006h-.037l-.192.013h-.05l-.174.006h-.032l-.19.011h-.052l-.186.013h-.031l-.174.013h-.042l-.193.013h-.044l-.167.012h-.038l-.2.011h-.036l-.18.007-.025.006-.192.007-.043.006-.187.013h-.018l-.192.012h-.051l-.19.013-.015.005-.186.013h-.043l-.192.012-.039.007-.167.012h-.042l-.194.013-.043.006-.18.012h-.019l-.192.012-.05.007-.192.012h-.032l-.167.013-.05.006-.186.012-.043.006-.162.013h-.043l-.186.019-.05.006-.168.013h-.032l-.19.017-.052.007-.18.012h-.025l-.18.02-.048.006-.193.017h-.032l-.166.02h-.051l-.186.018-.043.007-.162.017h-.043l-.186.02-.05.006-.168.019h-.032l-.18.017-.061.007-.18.019-.043.006-.156.02-.055.005-.182.018h-.047l-.156.019-.045.006-.18.02-.063.006-.154.017h-.037l-.18.026-.056.006-.186.02h-.013l-.18.023-.062.006-.174.02-.198.023-.055.007-.181.019-.056.006-.199.025-.18.018-.055.006-.162"
        fill="#EFF2FF" />
</svg>